Coordinates
version=1
nRows=11
nColumns=46
inDegrees=yes

Units are S.I. units (second, meters, Newtons, ...)
Angles are in degrees.

endheader
time	pelvis_tilt	pelvis_list	pelvis_rotation	pelvis_tx	pelvis_ty	pelvis_tz	bb_angle	bb_tx	bb_ty	bb_tz	hip_flexion_r	hip_adduction_r	hip_rotation_r	knee_angle_r	knee_angle_r_beta	ankle_angle_r	subtalar_angle_r	mtp_angle_r	crank_angle_r	hip_flexion_l	hip_adduction_l	hip_rotation_l	knee_angle_l	knee_angle_l_beta	ankle_angle_l	subtalar_angle_l	mtp_angle_l	crank_angle_l	lumbar_extension	lumbar_bending	lumbar_rotation	arm_flex_r	arm_add_r	arm_rot_r	elbow_flex_r	pro_sup_r	wrist_flex_r	wrist_dev_r	arm_flex_l	arm_add_l	arm_rot_l	elbow_flex_l	pro_sup_l	wrist_flex_l	wrist_dev_l
      0.00000000	    -19.69203415	      2.01089767	      4.01265444	      0.08768016	      1.07133024	     -0.27226250	      0.00000000	      0.50000000	      0.00000000	      0.25000000	     46.06876192	     -7.97363495	     -2.94735251	     42.76887185	      0.74645763	      0.96356326	    -12.23198993	      0.00000000	      0.00000000	     96.76436229	     -2.86333891	     -1.53239012	    107.96430029	      1.88433251	     23.60121568	     -5.39186784	      0.00000000	      0.00000000	    -47.00778602	     -1.31405354	     -3.99459731	     89.68458560	     -6.54302553	     38.19796239	     22.79993660	     26.34944013	      0.00000000	      0.00000000	     89.77260447	     -1.71760109	     40.35009097	     23.40112176	     25.06866136	      0.00000000	      0.00000000
      0.00500000	    -19.73853993	      2.02669499	      3.99084378	      0.08772471	      1.07128008	     -0.27227697	      0.00000000	      0.50000000	      0.00000000	      0.25000000	     46.12905957	     -7.98611168	     -2.93373672	     42.78321655	      0.74670799	      0.96550276	    -12.16923573	      0.00000000	      0.00000000	     96.81246076	     -2.89863943	     -1.57433678	    107.96266635	      1.88430400	     23.57740509	     -5.45917207	      0.00000000	      0.00000000	    -47.00672229	     -1.34872682	     -3.99974591	     89.68153106	     -6.41011757	     37.19602794	     22.90962379	     26.34513228	      0.00000000	      0.00000000	     89.76948090	     -1.50010868	     39.08606858	     23.52191000	     24.97052531	      0.00000000	      0.00000000
      0.01000000	    -19.71303451	      2.02587252	      4.01025999	      0.08771243	      1.07132409	     -0.27230037	      0.00000000	      0.50000000	      0.00000000	      0.25000000	     46.09312437	     -7.98870932	     -2.92352982	     42.76950890	      0.74646875	      0.95698263	    -12.18617109	      0.00000000	      0.00000000	     96.77068675	     -2.85826699	     -1.52247726	    107.96395234	      1.88432644	     23.62955623	     -5.31899991	      0.00000000	      0.00000000	    -47.01210993	     -1.33469536	     -4.00768495	     89.68196300	     -6.60103253	     38.62856415	     23.50181949	     22.80439608	      0.00000000	      0.00000000	     89.76979072	     -1.56240784	     39.89169909	     24.28257952	     20.30933206	      0.00000000	      0.00000000
      0.01500000	    -19.32876319	      1.94679355	      3.88720931	      0.08836865	      1.07211185	     -0.27187353	      0.00000000	      0.50000000	      0.00000000	      0.25000000	     45.54498342	     -7.78290961	     -2.96353392	     42.57318370	      0.74304223	      0.86343670	    -12.44303515	      0.00000000	      0.00000000	     96.24571853	     -2.84661822	     -1.11997419	    107.98577971	      1.88470740	     24.01084172	     -4.95150943	      0.00000000	      0.00000000	    -47.52474870	     -1.36893647	     -3.79701236	     89.67269049	     -6.67195000	     36.88685873	     24.15468435	     23.82292099	      0.00000000	      0.00000000	     89.76991445	     -1.44717408	     37.99899832	     25.82855048	     21.73426436	      0.00000000	      0.00000000
      0.02000000	    -19.52512428	      1.96783482	      3.83312508	      0.08816487	      1.07161077	     -0.27172109	      0.00000000	      0.50000000	      0.00000000	      0.25000000	     45.84609087	     -7.75274550	     -2.85744600	     42.69831943	      0.74522626	      0.93833336	    -12.31345689	      0.00000000	      0.00000000	     96.49308717	     -2.87612524	     -1.10071497	    108.03555320	      1.88557611	     23.91436063	     -4.88290082	      0.00000000	      0.00000000	    -47.22953815	     -1.45069405	     -3.83120494	     89.68065265	     -6.59399752	     38.17959390	     23.52066343	     23.30850805	      0.00000000	      0.00000000	     89.77047370	     -1.59579290	     39.78863520	     24.45951384	     21.36168111	      0.00000000	      0.00000000
      0.02500000	    -19.48030524	      1.99321623	      3.85644847	      0.08822410	      1.07170247	     -0.27178699	      0.00000000	      0.50000000	      0.00000000	      0.25000000	     45.79270241	     -7.80005591	     -2.85663631	     42.70651460	      0.74536929	      0.97724813	    -12.24624881	      0.00000000	      0.00000000	     96.44669259	     -2.87589773	     -1.11941794	    108.02323015	      1.88536103	     23.91745801	     -4.78808843	      0.00000000	      0.00000000	    -47.24192136	     -1.47046526	     -3.74565122	     89.68046307	     -6.76694324	     38.20106313	     22.99975143	     26.08823825	      0.00000000	      0.00000000	     89.77101425	     -1.49875467	     40.60264543	     23.60434100	     24.10112796	      0.00000000	      0.00000000
      0.03000000	    -19.37489734	      1.98059858	      3.94004434	      0.08817138	      1.07198093	     -0.27187347	      0.00000000	      0.50000000	      0.00000000	      0.25000000	     45.63897271	     -7.84912546	     -2.96976087	     42.63856199	      0.74418329	      0.87348056	    -12.36478831	      0.00000000	      0.00000000	     96.33406913	     -2.83249657	     -1.14320727	    108.00412097	      1.88502752	     23.94570896	     -4.65397327	      0.00000000	      0.00000000	    -47.42748381	     -1.38360484	     -3.80073399	     89.67884120	     -6.61147302	     36.84399838	     23.21905667	     26.76596322	      0.00000000	      0.00000000	     89.76814575	     -1.34996126	     38.97616067	     23.85381516	     24.91649798	      0.00000000	      0.00000000
      0.03500000	    -19.51676813	      2.03773232	      3.96263465	      0.08805053	      1.07165531	     -0.27198269	      0.00000000	      0.50000000	      0.00000000	      0.25000000	     45.85584483	     -7.93729898	     -2.92177812	     42.75211141	      0.74616511	      0.97641045	    -12.21392447	      0.00000000	      0.00000000	     96.50540501	     -2.84269002	     -1.27913274	    107.99309355	      1.88483505	     23.81622011	     -4.82892684	      0.00000000	      0.00000000	    -47.22544008	     -1.44722787	     -3.84896966	     89.68226284	     -6.78575506	     37.79302622	     23.83735669	     22.56982109	      0.00000000	      0.00000000	     89.76962101	     -1.39259056	     40.13737478	     24.36330928	     20.37105058	      0.00000000	      0.00000000
      0.04000000	    -19.30420655	      1.91776800	      3.99810335	      0.08805600	      1.07213501	     -0.27199082	      0.00000000	      0.50000000	      0.00000000	      0.25000000	     45.52417487	     -7.82642943	     -3.02767858	     42.56777408	      0.74294781	      0.82648344	    -12.40452732	      0.00000000	      0.00000000	     96.29206657	     -2.88272332	     -1.19236191	    108.00097837	      1.88497267	     23.92335550	     -4.60563168	      0.00000000	      0.00000000	    -47.61391984	     -1.28887666	     -3.85326164	     89.67419164	     -6.12824938	     33.29826057	     23.80194427	     27.07780405	      0.00000000	      0.00000000	     89.76552984	     -0.86090705	     35.47701793	     24.16534156	     25.20278239	      0.00000000	      0.00000000
      0.04500000	    -19.58193058	      2.04941713	      4.00781136	      0.08791618	      1.07151536	     -0.27215846	      0.00000000	      0.50000000	      0.00000000	      0.25000000	     45.95721509	     -7.99950981	     -2.92737412	     42.81123898	      0.74719708	      1.00742215	    -12.15777258	      0.00000000	      0.00000000	     96.59377593	     -2.87968987	     -1.41294759	    107.97752875	      1.88456339	     23.75241119	     -4.87881116	      0.00000000	      0.00000000	    -47.17436838	     -1.41370232	     -3.99361153	     89.68332995	     -6.67878482	     37.75452485	     23.83258016	     22.62403822	      0.00000000	      0.00000000	     89.77126954	     -1.50391781	     39.98240270	     24.33827327	     20.13587049	      0.00000000	      0.00000000
      0.05000000	    -19.63046504	      2.02365623	      3.98540054	      0.08790166	      1.07142251	     -0.27213805	      0.00000000	      0.50000000	      0.00000000	      0.25000000	     46.01303617	     -7.95301750	     -2.89277511	     42.81232331	      0.74721600	      0.99277516	    -12.19439525	      0.00000000	      0.00000000	     96.65684046	     -2.93495336	     -1.41010524	    107.98509579	      1.88469546	     23.76932669	     -4.84233523	      0.00000000	      0.00000000	    -47.11269342	     -1.40949965	     -3.93537087	     89.68364792	     -6.70763270	     37.60337589	     23.28567101	     25.71553204	      0.00000000	      0.00000000	     89.77101942	     -1.58243078	     40.22639931	     23.67340327	     23.98138294	      0.00000000	      0.00000000
